<svg xmlns="http://www.w3.org/2000/svg" version="1.1" xmlns:xlink="http://www.w3.org/1999/xlink" xmlns:svgjs="http://svgjs.com/svgjs" width="381.8" height="396.3"><svg version="1.1" id="SvgjsSvg1000" xmlns:svgjs="http://svgjs.com/svgjs" xmlns="http://www.w3.org/2000/svg" xmlns:xlink="http://www.w3.org/1999/xlink" x="0px" y="0px" viewBox="0 0 381.8 396.3" style="enable-background:new 0 0 381.8 396.3;" xml:space="preserve">
<g>
	<path d="M231.4,248.1c0,37.5-7.1,67.3-21.2,89.5c-14.2,22.2-34.9,33.3-62.1,33.3c-11.9,0-22.3-2.8-31.2-8.4
		c-8.9-5.6-16.5-13.7-22.7-24.2l-4.4,27.8H34.5V8H99v131.8c6-8.6,13-15.2,21.1-19.7c8.1-4.6,17.4-6.9,27.8-6.9
		c27.4,0,48.2,11.8,62.3,35.3c14.2,23.6,21.2,55.2,21.2,94.8V248.1z M166.7,243.3c0-24.9-2.5-44.4-7.6-58.3
		c-5.1-13.9-14.3-20.9-27.8-20.9c-7.5,0-14,1.9-19.4,5.7c-5.4,3.8-9.8,9.2-13,16.1v115.5c3.2,6.3,7.5,11,12.9,14.1
		c5.4,3.1,11.9,4.7,19.7,4.7c13.6,0,22.9-6.1,27.8-18.4c4.9-12.2,7.3-30.1,7.3-53.7V243.3z"></path>
	<path d="M337,366.1h-63.8V308H337V366.1z"></path>
</g>
</svg><style>@media (prefers-color-scheme: light) { :root { filter: none; } }
@media (prefers-color-scheme: dark) { :root { filter: invert(100%); } }
</style></svg>