<svg xmlns="http://www.w3.org/2000/svg" version="1.1" xmlns:xlink="http://www.w3.org/1999/xlink" xmlns:svgjs="http://svgjs.com/svgjs" width="381.8" height="396.3"><svg version="1.1" id="SvgjsSvg1000" xmlns="http://www.w3.org/2000/svg" xmlns:xlink="http://www.w3.org/1999/xlink" x="0px" y="0px" viewBox="0 0 381.8 396.3" style="enable-background:new 0 0 381.8 396.3;" xml:space="preserve">
<g>
	<path d="M153.1,227.2c8.2,4,15.8,7,22.7,11.2c7.9,4.8,15.7,9.8,22.4,16c14.1,13,16.6,31.7,4.6,46.6c-8.5,10.6-19.2,20.3-30.7,27.5
		c-40.2,25.1-84.7,40-130.5,50.9c-2.9,0.7-6,0.4-9,0.6c-0.2-0.6-0.5-1.3-0.7-1.9c3.9-2.5,7.6-5.5,11.7-7.6
		c30.9-15.9,62.2-31.1,92.7-47.7c12.3-6.7,23.8-15.3,34.4-24.5c15.3-13.2,14.1-21.7-4.1-30.1c-15-6.9-30.8-11.9-46.3-17.7
		c-5.7-2.1-11.5-3.8-17.2-6.1c-8.2-3.3-14.3-8.9-14.6-18.2c-0.3-9.6,5.4-16.1,13.7-19.8c14.5-6.3,29.3-11.8,43.9-17.8
		c51.7-21.1,101.9-45.3,146.1-79.8c12.3-9.6,23.6-21.2,33-33.7c12.7-17,9-24-12-25.5c-24.9-1.8-48.2,5.1-70.5,15.5
		c-39.8,18.6-73.3,45.9-103.4,77.4c-42.5,44.5-75.3,95.9-102.6,150.8c-4.9,9.8-7.6,20.7-11.3,31c0.7,0.8,1.4,1.6,2.1,2.4
		c6.6-0.5,13.5,0.2,19.7-1.6c27.8-7.9,55.4-16.5,83.1-24.7c11.6-3.4,23.2-6.7,34.8-10c0.9,1.2,1.9,2.4,2.8,3.6
		c-1.8,0.6-3.7,0.8-5.2,1.8c-36.2,23.4-74.2,42.6-116.3,52.6c-7.8,1.9-16.5,1.8-24.6,0.9C9.7,348.4,2,339.6,0.5,327.4
		c-1.8-13.5,1.8-26.3,6.8-38.4c34.2-83.6,79.9-159.5,149.1-219.3c35-30.2,73.1-55,119-65.4c22-5,44.3-6.6,66.3,0.6
		c33,10.7,47.7,40.1,36.4,72.8c-8.5,24.6-25.9,42.6-45.5,58.6c-37.7,30.8-81.1,51.7-125.7,70.1c-15.9,6.6-32.2,12.3-48.4,18.5
		C156.9,225.5,155.5,226.2,153.1,227.2z"></path>
	<path d="M11.9,396.3c-1.9-2.8-5.4-5.7-5.3-8.4c0.1-2.5,4.4-7,6.3-6.7c2.9,0.5,7,3.8,7.5,6.6c0.5,2.4-3.3,5.6-5.2,8.5
		C14.2,396.3,13.1,396.3,11.9,396.3z"></path>
</g>
</svg><style>@media (prefers-color-scheme: light) { :root { filter: none; } }
@media (prefers-color-scheme: dark) { :root { filter: invert(100%); } }
</style></svg>